<mxfile host="app.diagrams.net" modified="2023-11-18T20:51:46.963Z" agent="Mozilla/5.0 (Windows NT 10.0; Win64; x64) AppleWebKit/537.36 (KHTML, like Gecko) Chrome/119.0.0.0 Safari/537.36" etag="gKxrjlJnIYePVin40uW8" version="22.1.3" type="device">
  <diagram name="Page-1" id="pkalxH3GCsMZknqXKzS0">
    <mxGraphModel dx="1434" dy="758" grid="1" gridSize="10" guides="1" tooltips="1" connect="1" arrows="1" fold="1" page="1" pageScale="1" pageWidth="850" pageHeight="1100" math="0" shadow="0">
      <root>
        <mxCell id="0" />
        <mxCell id="1" parent="0" />
        <mxCell id="M5SwcZthVQdyawCW9DYz-113" value="" style="rounded=0;whiteSpace=wrap;html=1;" vertex="1" parent="1">
          <mxGeometry x="130" y="370" width="580" height="200" as="geometry" />
        </mxCell>
        <mxCell id="M5SwcZthVQdyawCW9DYz-112" value="" style="rounded=0;whiteSpace=wrap;html=1;" vertex="1" parent="1">
          <mxGeometry x="130" y="70" width="580" height="170" as="geometry" />
        </mxCell>
        <mxCell id="M5SwcZthVQdyawCW9DYz-37" value="Client Registrat" style="shape=umlActor;verticalLabelPosition=bottom;verticalAlign=top;html=1;outlineConnect=0;" vertex="1" parent="1">
          <mxGeometry x="40" y="80" width="30" height="60" as="geometry" />
        </mxCell>
        <mxCell id="M5SwcZthVQdyawCW9DYz-38" value="Personal Shopper (System)" style="text;html=1;align=center;verticalAlign=middle;resizable=0;points=[];autosize=1;strokeColor=none;fillColor=none;" vertex="1" parent="1">
          <mxGeometry x="335" y="20" width="170" height="30" as="geometry" />
        </mxCell>
        <mxCell id="M5SwcZthVQdyawCW9DYz-39" value="Fer Demanat" style="ellipse;whiteSpace=wrap;html=1;" vertex="1" parent="1">
          <mxGeometry x="195" y="90" width="80" height="40" as="geometry" />
        </mxCell>
        <mxCell id="M5SwcZthVQdyawCW9DYz-42" value="Personal Shopper" style="shape=umlActor;verticalLabelPosition=bottom;verticalAlign=top;html=1;outlineConnect=0;" vertex="1" parent="1">
          <mxGeometry x="760" y="80" width="30" height="60" as="geometry" />
        </mxCell>
        <mxCell id="M5SwcZthVQdyawCW9DYz-44" value="" style="endArrow=classic;html=1;rounded=0;entryX=1;entryY=0.5;entryDx=0;entryDy=0;" edge="1" parent="1" target="M5SwcZthVQdyawCW9DYz-68">
          <mxGeometry width="50" height="50" relative="1" as="geometry">
            <mxPoint x="755" y="110" as="sourcePoint" />
            <mxPoint x="625" y="150" as="targetPoint" />
            <Array as="points" />
          </mxGeometry>
        </mxCell>
        <mxCell id="M5SwcZthVQdyawCW9DYz-74" style="edgeStyle=orthogonalEdgeStyle;rounded=0;orthogonalLoop=1;jettySize=auto;html=1;entryX=0;entryY=0.5;entryDx=0;entryDy=0;" edge="1" parent="1" source="M5SwcZthVQdyawCW9DYz-46" target="M5SwcZthVQdyawCW9DYz-72">
          <mxGeometry relative="1" as="geometry" />
        </mxCell>
        <mxCell id="M5SwcZthVQdyawCW9DYz-46" value="Fer DevoluciÃ³" style="ellipse;whiteSpace=wrap;html=1;" vertex="1" parent="1">
          <mxGeometry x="315" y="140" width="80" height="40" as="geometry" />
        </mxCell>
        <mxCell id="M5SwcZthVQdyawCW9DYz-51" value="" style="endArrow=classic;html=1;rounded=0;entryX=0;entryY=0.5;entryDx=0;entryDy=0;" edge="1" parent="1" target="M5SwcZthVQdyawCW9DYz-39">
          <mxGeometry width="50" height="50" relative="1" as="geometry">
            <mxPoint x="80" y="110" as="sourcePoint" />
            <mxPoint x="455" y="400" as="targetPoint" />
          </mxGeometry>
        </mxCell>
        <mxCell id="M5SwcZthVQdyawCW9DYz-66" value="" style="endArrow=classic;html=1;rounded=0;exitX=1;exitY=0.5;exitDx=0;exitDy=0;entryX=0;entryY=0.5;entryDx=0;entryDy=0;" edge="1" parent="1" source="M5SwcZthVQdyawCW9DYz-39" target="M5SwcZthVQdyawCW9DYz-68">
          <mxGeometry width="50" height="50" relative="1" as="geometry">
            <mxPoint x="405" y="380" as="sourcePoint" />
            <mxPoint x="455" y="330" as="targetPoint" />
            <Array as="points">
              <mxPoint x="435" y="110" />
            </Array>
          </mxGeometry>
        </mxCell>
        <mxCell id="M5SwcZthVQdyawCW9DYz-67" value="&amp;lt;&amp;lt;includes&amp;gt;&amp;gt;" style="edgeLabel;html=1;align=center;verticalAlign=middle;resizable=0;points=[];" vertex="1" connectable="0" parent="M5SwcZthVQdyawCW9DYz-66">
          <mxGeometry x="-0.1048" y="-1" relative="1" as="geometry">
            <mxPoint as="offset" />
          </mxGeometry>
        </mxCell>
        <mxCell id="M5SwcZthVQdyawCW9DYz-68" value="Seleccionar Roba" style="ellipse;whiteSpace=wrap;html=1;" vertex="1" parent="1">
          <mxGeometry x="545" y="90" width="80" height="40" as="geometry" />
        </mxCell>
        <mxCell id="M5SwcZthVQdyawCW9DYz-69" value="" style="endArrow=classic;html=1;rounded=0;exitX=1;exitY=1;exitDx=0;exitDy=0;entryX=0;entryY=0.5;entryDx=0;entryDy=0;" edge="1" parent="1" source="M5SwcZthVQdyawCW9DYz-39" target="M5SwcZthVQdyawCW9DYz-46">
          <mxGeometry width="50" height="50" relative="1" as="geometry">
            <mxPoint x="405" y="340" as="sourcePoint" />
            <mxPoint x="455" y="290" as="targetPoint" />
          </mxGeometry>
        </mxCell>
        <mxCell id="M5SwcZthVQdyawCW9DYz-72" value="Gestionar Devolucions" style="ellipse;whiteSpace=wrap;html=1;" vertex="1" parent="1">
          <mxGeometry x="545" y="140" width="80" height="40" as="geometry" />
        </mxCell>
        <mxCell id="M5SwcZthVQdyawCW9DYz-73" value="" style="endArrow=classic;html=1;rounded=0;exitX=1;exitY=0.5;exitDx=0;exitDy=0;" edge="1" parent="1" source="M5SwcZthVQdyawCW9DYz-72">
          <mxGeometry width="50" height="50" relative="1" as="geometry">
            <mxPoint x="755" y="120" as="sourcePoint" />
            <mxPoint x="760" y="120" as="targetPoint" />
            <Array as="points" />
          </mxGeometry>
        </mxCell>
        <mxCell id="M5SwcZthVQdyawCW9DYz-80" value="Client Registrat" style="shape=umlActor;verticalLabelPosition=bottom;verticalAlign=top;html=1;outlineConnect=0;" vertex="1" parent="1">
          <mxGeometry x="45" y="380" width="30" height="60" as="geometry" />
        </mxCell>
        <mxCell id="M5SwcZthVQdyawCW9DYz-81" value="Personal Shopper (System)" style="text;html=1;align=center;verticalAlign=middle;resizable=0;points=[];autosize=1;strokeColor=none;fillColor=none;" vertex="1" parent="1">
          <mxGeometry x="340" y="320" width="170" height="30" as="geometry" />
        </mxCell>
        <mxCell id="M5SwcZthVQdyawCW9DYz-82" value="Fer Demanat" style="ellipse;whiteSpace=wrap;html=1;" vertex="1" parent="1">
          <mxGeometry x="190" y="390" width="80" height="40" as="geometry" />
        </mxCell>
        <mxCell id="M5SwcZthVQdyawCW9DYz-83" value="Personal Shopper" style="shape=umlActor;verticalLabelPosition=bottom;verticalAlign=top;html=1;outlineConnect=0;" vertex="1" parent="1">
          <mxGeometry x="765" y="380" width="30" height="60" as="geometry" />
        </mxCell>
        <mxCell id="M5SwcZthVQdyawCW9DYz-84" value="" style="endArrow=classic;html=1;rounded=0;entryX=1;entryY=0.5;entryDx=0;entryDy=0;" edge="1" target="M5SwcZthVQdyawCW9DYz-90" parent="1">
          <mxGeometry width="50" height="50" relative="1" as="geometry">
            <mxPoint x="760" y="410" as="sourcePoint" />
            <mxPoint x="630" y="450" as="targetPoint" />
            <Array as="points" />
          </mxGeometry>
        </mxCell>
        <mxCell id="M5SwcZthVQdyawCW9DYz-87" value="" style="endArrow=classic;html=1;rounded=0;entryX=0;entryY=0.5;entryDx=0;entryDy=0;" edge="1" target="M5SwcZthVQdyawCW9DYz-82" parent="1">
          <mxGeometry width="50" height="50" relative="1" as="geometry">
            <mxPoint x="85" y="410" as="sourcePoint" />
            <mxPoint x="460" y="700" as="targetPoint" />
          </mxGeometry>
        </mxCell>
        <mxCell id="M5SwcZthVQdyawCW9DYz-88" value="" style="endArrow=classic;html=1;rounded=0;exitX=1;exitY=0.5;exitDx=0;exitDy=0;entryX=0;entryY=0.5;entryDx=0;entryDy=0;" edge="1" source="M5SwcZthVQdyawCW9DYz-82" target="M5SwcZthVQdyawCW9DYz-90" parent="1">
          <mxGeometry width="50" height="50" relative="1" as="geometry">
            <mxPoint x="410" y="680" as="sourcePoint" />
            <mxPoint x="460" y="630" as="targetPoint" />
            <Array as="points">
              <mxPoint x="440" y="410" />
            </Array>
          </mxGeometry>
        </mxCell>
        <mxCell id="M5SwcZthVQdyawCW9DYz-89" value="&amp;lt;&amp;lt;includes&amp;gt;&amp;gt;" style="edgeLabel;html=1;align=center;verticalAlign=middle;resizable=0;points=[];" vertex="1" connectable="0" parent="M5SwcZthVQdyawCW9DYz-88">
          <mxGeometry x="-0.1048" y="-1" relative="1" as="geometry">
            <mxPoint as="offset" />
          </mxGeometry>
        </mxCell>
        <mxCell id="M5SwcZthVQdyawCW9DYz-90" value="Seleccionar Roba" style="ellipse;whiteSpace=wrap;html=1;" vertex="1" parent="1">
          <mxGeometry x="550" y="390" width="80" height="40" as="geometry" />
        </mxCell>
        <mxCell id="M5SwcZthVQdyawCW9DYz-94" value="Sistema de &lt;br&gt;pagament" style="shape=umlActor;verticalLabelPosition=bottom;verticalAlign=top;html=1;outlineConnect=0;" vertex="1" parent="1">
          <mxGeometry x="765" y="480" width="30" height="60" as="geometry" />
        </mxCell>
        <mxCell id="M5SwcZthVQdyawCW9DYz-95" value="Donar alta pagament" style="ellipse;whiteSpace=wrap;html=1;" vertex="1" parent="1">
          <mxGeometry x="190" y="520" width="80" height="40" as="geometry" />
        </mxCell>
        <mxCell id="M5SwcZthVQdyawCW9DYz-96" value="" style="endArrow=classic;html=1;rounded=0;entryX=0;entryY=0.5;entryDx=0;entryDy=0;" edge="1" parent="1" target="M5SwcZthVQdyawCW9DYz-95">
          <mxGeometry width="50" height="50" relative="1" as="geometry">
            <mxPoint x="85" y="420" as="sourcePoint" />
            <mxPoint x="260" y="450" as="targetPoint" />
          </mxGeometry>
        </mxCell>
        <mxCell id="M5SwcZthVQdyawCW9DYz-97" value="" style="endArrow=classic;html=1;rounded=0;entryX=1;entryY=0.5;entryDx=0;entryDy=0;" edge="1" parent="1" target="M5SwcZthVQdyawCW9DYz-95">
          <mxGeometry width="50" height="50" relative="1" as="geometry">
            <mxPoint x="755" y="520" as="sourcePoint" />
            <mxPoint x="640" y="420" as="targetPoint" />
            <Array as="points">
              <mxPoint x="715" y="540" />
            </Array>
          </mxGeometry>
        </mxCell>
        <mxCell id="M5SwcZthVQdyawCW9DYz-100" value="Processar Pagament" style="ellipse;whiteSpace=wrap;html=1;" vertex="1" parent="1">
          <mxGeometry x="380" y="490" width="80" height="40" as="geometry" />
        </mxCell>
        <mxCell id="M5SwcZthVQdyawCW9DYz-101" value="Processar Comanda" style="ellipse;whiteSpace=wrap;html=1;" vertex="1" parent="1">
          <mxGeometry x="380" y="430" width="80" height="40" as="geometry" />
        </mxCell>
        <mxCell id="M5SwcZthVQdyawCW9DYz-102" value="" style="endArrow=classic;html=1;rounded=0;entryX=0;entryY=0.5;entryDx=0;entryDy=0;exitX=1;exitY=1;exitDx=0;exitDy=0;" edge="1" parent="1" source="M5SwcZthVQdyawCW9DYz-82" target="M5SwcZthVQdyawCW9DYz-101">
          <mxGeometry width="50" height="50" relative="1" as="geometry">
            <mxPoint x="155" y="440" as="sourcePoint" />
            <mxPoint x="260" y="440" as="targetPoint" />
          </mxGeometry>
        </mxCell>
        <mxCell id="M5SwcZthVQdyawCW9DYz-103" value="" style="endArrow=classic;html=1;rounded=0;entryX=0.5;entryY=0;entryDx=0;entryDy=0;exitX=0.5;exitY=1;exitDx=0;exitDy=0;" edge="1" parent="1" source="M5SwcZthVQdyawCW9DYz-101" target="M5SwcZthVQdyawCW9DYz-100">
          <mxGeometry width="50" height="50" relative="1" as="geometry">
            <mxPoint x="268" y="434" as="sourcePoint" />
            <mxPoint x="365" y="470" as="targetPoint" />
          </mxGeometry>
        </mxCell>
        <mxCell id="M5SwcZthVQdyawCW9DYz-104" value="" style="endArrow=classic;html=1;rounded=0;entryX=1;entryY=0.5;entryDx=0;entryDy=0;" edge="1" parent="1" target="M5SwcZthVQdyawCW9DYz-101">
          <mxGeometry width="50" height="50" relative="1" as="geometry">
            <mxPoint x="760" y="420" as="sourcePoint" />
            <mxPoint x="445" y="440" as="targetPoint" />
          </mxGeometry>
        </mxCell>
        <mxCell id="M5SwcZthVQdyawCW9DYz-106" value="" style="endArrow=classic;html=1;rounded=0;entryX=1;entryY=0.5;entryDx=0;entryDy=0;" edge="1" parent="1" target="M5SwcZthVQdyawCW9DYz-100">
          <mxGeometry width="50" height="50" relative="1" as="geometry">
            <mxPoint x="755" y="510" as="sourcePoint" />
            <mxPoint x="445" y="440" as="targetPoint" />
          </mxGeometry>
        </mxCell>
        <mxCell id="M5SwcZthVQdyawCW9DYz-107" value="GestiÃ³ de paquets" style="shape=umlActor;verticalLabelPosition=bottom;verticalAlign=top;html=1;outlineConnect=0;" vertex="1" parent="1">
          <mxGeometry x="760" y="190" width="30" height="60" as="geometry" />
        </mxCell>
        <mxCell id="M5SwcZthVQdyawCW9DYz-108" value="" style="endArrow=classic;html=1;rounded=0;entryX=1;entryY=1;entryDx=0;entryDy=0;" edge="1" parent="1" target="M5SwcZthVQdyawCW9DYz-72">
          <mxGeometry width="50" height="50" relative="1" as="geometry">
            <mxPoint x="750" y="210" as="sourcePoint" />
            <mxPoint x="635" y="230" as="targetPoint" />
            <Array as="points" />
          </mxGeometry>
        </mxCell>
      </root>
    </mxGraphModel>
  </diagram>
</mxfile>
